<?xml version="1.0" standalone="no"?><!DOCTYPE svg PUBLIC "-//W3C//DTD SVG 1.1//EN" "http://www.w3.org/Graphics/SVG/1.1/DTD/svg11.dtd"><svg t="1741256083666" class="icon" viewBox="0 0 1024 1024" version="1.1" xmlns="http://www.w3.org/2000/svg" p-id="1842" xmlns:xlink="http://www.w3.org/1999/xlink" width="200" height="200"><path d="M9.26833778 495.14951112a502.73848889 502.73848889 0 1 0 1005.47697777 0 502.73848889 502.73848889 0 1 0-1005.47697777 0z" fill="#F0F8FF" p-id="1843"></path><path d="M509.72785778 511.73148445c34.89109333 19.12035555 88.31658667-125.55491555-3.14140445-117.37656889-91.45799111 8.17720889 3.14140445 117.37656889 3.14140445 117.37656889z" fill="#FFE1CC" p-id="1844"></path><path d="M487.44903111 850.77674667a24.55779555 24.55779555 0 1 0 49.11559111 0 24.55779555 24.55779555 0 1 0-49.11559111 0z" fill="#5A7C88" p-id="1845"></path><path d="M308.74168889 511.63591112c-34.36657778 20.04764445-91.64458667-123.14737778 0-117.41866667 91.64344889 5.72643555 0 117.41866667 0 117.41866667z m401.20661333 0c34.36657778 20.04764445 91.64458667-123.14737778 0-117.41866667-91.64344889 5.72643555 0 117.41866667 0 117.41866667z" fill="#FFE1CC" p-id="1846"></path><path d="M731.35900445 436.97265778c0 120.75804445-97.89326222 251.46140445-218.65244445 251.46140444S294.05525333 557.73070222 294.05525333 436.97265778s97.8944-218.65244445 218.65244445-218.65244444 218.65130667 97.8944 218.65130667 218.65244444z m-17.71406223 390.54904889c0 53.20817778-89.96295111 96.34133333-200.93838222 96.34133333s-200.93838222-43.13315555-200.93838222-96.34133333 89.96295111-69.76398222 200.93838222-69.76398222 200.93838222 16.55580445 200.93838222 69.76398222z" fill="#FFE1CC" p-id="1847"></path><path d="M794.88 910.80704c-32.19114667 21.97504-67.07313778 40.31374222-104.09870222 54.31637334a428.49166222 428.49166222 0 0 1-29.50030223 10.21496888 495.89248 495.89248 0 0 1-98.11854222 19.98279112 496.06656 496.06656 0 0 1-47.38958222 2.54179555c-0.69745778 0.05006222-1.39491555 0.05006222-2.09351111 0.05006223h-3.08906667c-0.64739555 0-1.29592889 0-1.94332444-0.05006223a485.75374222 485.75374222 0 0 1-46.89123556-2.44167111c-32.14108445-3.18919111-63.33553778-9.36846222-93.38424888-18.38762666a442.80832 442.80832 0 0 1-26.80832-8.76999112 322.49173333 322.49173333 0 0 1-15.04938667-5.73098666c-1.54510222-0.59847111-3.14026667-1.19580445-4.68423111-1.89326222-11.31178667-4.58524445-22.47452445-9.61763555-33.33802667-15.0994489a76.55651555 76.55651555 0 0 1-4.53404445-2.24256c-18.6368-9.46744889-36.62620445-20.13184-53.81802666-31.79292444 16.04608-37.42264889 37.47384889-67.82065778 63.08750222-91.93927111 10.26503111-9.71776 21.27872-18.38762667 32.83854222-26.06193778 0.05006222-0.05006222 0.05006222 0 0.05006222 0 4.18588445-2.79096889 8.42069333-5.48181333 12.75676445-8.02247111a236.66460445 236.66460445 0 0 1 9.86680889-5.48181333 240.96540445 240.96540445 0 0 1 13.95256889-6.87672889c1.04675555-0.49834667 2.09237333-0.94663111 3.13912889-1.39491556a242.21696 242.21696 0 0 1 16.99271111-6.87672888c1.94332445-0.74752 3.83658667-1.44497778 5.78104889-2.09237334 0.05006222 0 0.05006222 0 0.10012444-0.05006222h0.05006222a235.27196445 235.27196445 0 0 1 7.72323556-2.54179556c2.54179555-0.84650667 5.08245333-1.59516445 7.62424889-2.34154666-0.05006222 0.39822222 0 0.89656889 0.14904889 1.44497778 0.19911111 1.09681778 0.64853333 2.44167111 1.29592888 4.03683555 0.24917333 0.49834667 0.44942222 0.99669333 0.69859556 1.54510222 1.19580445 2.64078222 2.88995555 5.78104889 5.03352889 9.3184 3.7376 6.32832 8.91904 13.90364445 15.09831111 21.87605333 0.05006222 0.05006222 0.10012445 0.15018667 0.15018667 0.19911112 1.69415111 2.14243555 3.48842667 4.33493333 5.28156444 6.57749333l0.05006223 0.10012445c0.10012445 0.05006222 0.15018667 0.15018667 0.1991111 0.1991111a322.90702222 322.90702222 0 0 0 6.82666667 7.92348445s0.05006222 0 0.05006223 0.05006222a351.87939555 351.87939555 0 0 0 8.47189333 8.92017778c1.29592889 1.24586667 2.59185778 2.54179555 3.88664889 3.78766222a146.68231111 146.68231111 0 0 0 4.18588444 3.88664889 79.73091555 79.73091555 0 0 0 3.78766222 3.38830222 262.37155555 262.37155555 0 0 0 5.98016 4.93340445c1.59402667 1.24586667 3.18919111 2.44167111 4.78321778 3.63747555 5.73098667 4.18588445 11.61102222 7.72437333 17.49105778 10.51420445 7.57418667 3.68753778 15.24849778 5.93009778 22.72256 6.32832 0.79758222 0.10012445 1.64522667 0.10012445 2.44167111 0.10012444 0.79758222 0 1.64522667 0 2.44167111-0.10012444 7.02691555-0.34929778 14.25180445-2.44167111 21.42776889-5.68092445 6.32832-2.88995555 12.65777778-6.72654222 18.83591111-11.16273778a136.81550222 136.81550222 0 0 0 6.22933334-4.73429333c2.84103111-2.34154667 5.63086222-4.73429333 8.37176888-7.27495111a93.26136889 93.26136889 0 0 0 4.03683556-3.78766222c1.89326222-1.79427555 3.78766222-3.63747555 5.5808-5.53073778a189.14986667 189.14986667 0 0 0 7.57418666-8.07253333 168.37632 168.37632 0 0 0 4.03569778-4.63416889l0.05006222-0.05006222a352.03640889 352.03640889 0 0 0 4.03683556-4.83328 264.28984889 264.28984889 0 0 0 13.90364444-18.78698667c4.53404445-6.77660445 7.92348445-12.70670222 9.96579556-17.09169778 0.24917333-0.54840889 0.44828445-1.04675555 0.69745778-1.54510222 1.04675555-2.49173333 1.54510222-4.33493333 1.44497778-5.48181333 5.43175111 1.59516445 10.81344 3.28931555 16.09500444 5.13251555 1.54510222 0.54840889 3.14026667 1.09681778 4.63416889 1.69415111 4.98346667 1.79427555 9.91687111 3.7376 14.75015111 5.88003556a231.81198222 231.81198222 0 0 1 19.43438222 9.26833778c0.05006222 0 0.05006222 0.05006222 0.10012445 0.05006222 3.48842667 1.74421333 6.82666667 3.63747555 10.21610667 5.63086222 46.04131555 26.95850667 83.61528889 67.82065778 108.33123555 125.32622222z" fill="#FFFDF8" p-id="1848"></path><path d="M441.67281778 585.00778667v204.30961778h139.52796444V585.00778667H441.67281778z" fill="#FFE1CC" p-id="1849"></path><path d="M621.61578667 781.84220445l-0.24917334 0.79758222c0.05006222 0.05006222 0 0.05006222 0 0.05006222l-10.56426666 38.61959111-3.58741334 13.15612445-0.84764444 3.13912889-1.34599111 4.88334222v0.05006222l-8.37176889 30.59712-0.05006222 0.05006222-12.10823112 44.35057778-21.32764444 77.78645334a496.06656 496.06656 0 0 1-47.38958222 2.54179555c-0.69745778 0.05006222-1.39491555 0.05006222-2.09351111 0.05006222h-3.08906667c-0.64739555 0-1.29592889 0-1.94332444-0.05006222a485.75374222 485.75374222 0 0 1-46.89123556-2.44167111c-6.22933333-24.51683555-13.05486222-51.37635555-19.73361778-77.68746667-4.08689778-15.79690667-8.07253333-31.44362667-11.86019555-46.19377777-1.64408889-6.27825778-3.18919111-12.35854222-4.73429333-18.28864-0.09898667-0.34816-0.19911111-0.64739555-0.24917334-0.99669334v-0.05006222c-1.19580445-4.48512-2.29262222-8.82005333-3.38830222-13.056-0.44714667-1.64408889-0.84650667-3.23925333-1.24586667-4.83328l-0.05006222-0.05006222c-2.09237333-8.12259555-4.08576-15.59665778-5.88003555-22.42446222a2155.28448 2155.28448 0 0 0-7.4752-27.80615112v-0.05006222a485.14389333 485.14389333 0 0 1-1.19580445-4.18588444v-0.05006222c-1.14574222-3.88664889-1.8432-6.07914667-2.04231111-6.22933334l7.37507556 0.64739556 30.3968711 2.79096888 63.38673778 5.73098667h3.33937778l5.03352889-0.05006222h0.94663111l66.82396444-0.49834667 28.0064-0.19911111 10.31509334-0.09898667h2.09009778z" fill="#79C4FF" p-id="1850"></path><path d="M508.64696889 997.86183112a485.75374222 485.75374222 0 0 1-46.89123556-2.44167112c-32.14108445-3.18919111-63.33553778-9.36846222-93.38424888-18.38762666a442.80832 442.80832 0 0 1-26.80832-8.76999112 349.696 349.696 0 0 0-12.40746667-10.56426666c-1.29592889-1.04675555-2.64078222-2.14243555-3.98677333-3.18919111-0.59847111-0.49834667-1.19580445-0.99669333-1.84433778-1.44497778-0.49720889-0.44828445-1.04675555-0.84650667-1.59402667-1.24586667a384.06599111 384.06599111 0 0 0-24.91619555-17.88928c-1.29479111-0.79758222-2.54065778-1.64408889-3.83658667-2.44167111-1.44497778-0.94663111-2.94001778-1.8432-4.38613333-2.74090667-0.54727111-0.34929778-1.04675555-0.64739555-1.59402667-0.99669333 0.84764445-0.64739555 1.69415111-1.29592889 2.54179555-1.89326222 0.34816-0.24917333 0.69745778-0.54840889 0.99669334-0.79758222 2.44167111-1.79427555 4.83328-3.63747555 7.17596444-5.43175111 2.59185778-2.04344889 5.18257778-3.98677333 7.67431111-6.02908445l0.05006223-0.05006222c14.35079111-11.31178667 27.35786667-22.32433778 39.26698666-33.13777778a455.86432 455.86432 0 0 0 11.11267556-10.41521777c4.58524445-4.33493333 8.92017778-8.62094222 13.15612444-12.90695112v-0.05006222a675.50890667 675.50890667 0 0 0 10.36401778-11.01255111c1.24586667-1.34599111 2.74090667-2.79096889 5.53187556-2.59185778 1.69415111 0.10012445 3.63747555 0.84650667 5.48181333 1.59516445 13.90250667 5.68092445 26.70933333 14.99932445 37.92213333 24.81607111 0.64739555 0.54840889 1.29592889 1.14688 1.89326222 1.69415111a258.4576 258.4576 0 0 1 43.70204445 50.52871111 271.12789333 271.12789333 0 0 1 34.77959111 75.79420445z" fill="#E5EAF9" p-id="1851"></path><path d="M478.59939555 922.46698667c13.85244445 28.05532445 26.55914667 53.91815111 31.99089778 75.44490667-0.64739555 0-1.29592889 0-1.94332444-0.05006222a485.75374222 485.75374222 0 0 1-46.89123556-2.44167112c-32.14108445-3.18919111-63.33553778-9.36846222-93.38424888-18.38762666-9.61763555-9.71662222-19.48330667-18.83591111-29.5992889-27.20768a55.89902222 55.89902222 0 0 0-3.78766222-3.18919112c-1.29592889-1.09681778-2.64078222-2.14243555-3.93671111-3.1891911-1.44497778-1.19580445-2.88995555-2.29262222-4.33493333-3.38830223-8.22272-6.42844445-16.54328889-12.40860445-24.96512-17.84035555a61.17717333 61.17717333 0 0 0-4.03683556-2.59185778 260.39864889 260.39864889 0 0 0-6.92679111-4.33493334c7.07584-5.18257778 13.85244445-10.26503111 20.38101333-15.39754666h0.05006223c10.16604445-7.92348445 19.68355555-15.69678222 28.55367111-23.32103111a646.28394667 646.28394667 0 0 0 15.39868444-13.70339556c3.93671111-3.68753778 7.72323555-7.27495111 11.31178667-10.81344 4.98346667-4.88334222 9.71662222-9.71662222 14.15168-14.50097777 0.79758222-0.84650667 3.09020445-3.98677333 5.38168889-6.03022223 1.19580445-1.04675555 2.39160889-1.79427555 3.33824-1.74421333 1.64522667 0.14904889 5.03352889-0.69745778 6.87786666 0 2.09237333 0.84764445 4.08576 0.44828445 6.07914667-0.84764444 0.05006222 0 0.10012445-0.05006222 0.15018667-0.10012445 1.44497778-0.94663111 2.83989333-2.44167111 4.23594666-4.18588445 2.74090667-3.48842667 5.38168889-8.22158222 7.92348445-12.80682666 2.64078222-4.73429333 5.18257778-9.36846222 7.72437333-12.40860444 0.64739555-0.79758222 1.24586667-1.44497778 1.89326222-1.99338667a7.47861333 7.47861333 0 0 1 2.14357334-1.39491556c1.54396445-0.64739555 3.08906667-0.44828445 4.63416889 0.89656889 0.29923555 2.04344889 0.64739555 4.03683555 1.04675555 6.07914667v0.09898667c0.29923555 1.39491555 0.54840889 2.83989333 0.89656889 4.28600888v0.05006222c1.8944 9.21827555 4.48512 18.43768889 7.52412445 27.70602667 0.44942222 1.34485333 0.89770667 2.69084445 1.39491555 4.08576v0.05006223c0.15018667 0.44828445 0.29923555 0.89656889 0.49834667 1.3459911 0.39822222 1.24586667 0.89656889 2.54179555 1.34599111 3.78766223v0.05006222c9.61422222 26.71160889 22.72028445 53.17176889 34.87971555 77.98784z" fill="#F3F7FF" p-id="1852"></path><path d="M457.91459555 819.25575112c-25.66599111 16.60586667-1.94446222 8.98503111-23.33013333 30.60394666-15.78439111-28.36935111-101.32821333-12.63047111-126.27399111-30.79736889 102.05070222-109.18229333 71.22033778-24.82972445 149.60412444 0.19342223z" fill="#E5EAF9" p-id="1853"></path><path d="M455.86773333 814.08682667c-25.66599111 16.60586667-1.94446222 8.98389333-23.33013333 30.60394667-15.78439111-28.36935111-101.32821333-12.63047111-126.27399111-30.79736889 102.05184-109.18343111 71.22147555-24.83086222 149.60412444 0.19342222z" fill="#F3F7FF" p-id="1854"></path><path d="M735.87939555 932.73201778c-15.29742222 9.3184-30.39687111 20.13184-45.09809777 32.39025778a428.49166222 428.49166222 0 0 1-29.50030223 10.21496889 495.89248 495.89248 0 0 1-98.11854222 19.98279111 496.06656 496.06656 0 0 1-47.38958222 2.54179556c7.92348445-26.41123555 20.23082667-52.27292445 36.67626667-75.89319112 11.91025778-17.09169778 25.96181333-32.98872889 42.15694222-47.14040888 0.64739555-0.59847111 1.29592889-1.09568 1.99338667-1.6440889l0.05006222-0.05006222c10.71331555-9.21941333 22.87274667-17.79029333 35.87868444-23.12192 1.84433778-0.74752 3.78766222-1.49504 5.48181334-1.59516444 2.83989333-0.19911111 4.28487111 1.24586667 5.53073778 2.59185778 9.66769778 10.56426667 20.5312 21.42776889 32.68949333 32.53930666C690.68117333 896.85333334 706.92636445 910.50666667 725.16494222 924.60942222c3.48842667 2.69198222 7.07584 5.38282667 10.71445333 8.12259556z" fill="#E5EAF9" p-id="1855"></path><path d="M732.14179555 920.27448889a264.39907555 264.39907555 0 0 0-6.97571555 4.33493333c-21.97617778 13.95256889-43.50293333 30.99534222-63.88394667 50.72896a495.89248 495.89248 0 0 1-98.11854222 19.98279112 496.06656 496.06656 0 0 1-47.38958222 2.54179555c-0.69745778 0.05006222-1.39491555 0.05006222-2.09351111 0.05006223 6.32832-21.82599111 19.33425778-47.63875555 32.98872889-75.44490667 11.01255111-22.32433778 22.47452445-45.94460445 31.29457778-69.81404445 0.89656889-2.34154667 1.74421333-4.68423111 2.59185777-7.02577778v-0.05006222c0.64739555-1.8432 1.24586667-3.68753778 1.8432-5.48181333 3.04014222-9.26833778 5.632-18.48775111 7.52412445-27.65596445v-0.05006222c0.34929778-1.44497778 0.59847111-2.88995555 0.89770666-4.33493333 0.15018667-0.84764445 0.29923555-1.64408889 0.39822222-2.44167111l0.05006223-0.05006222c0.19911111-1.19580445 0.39936-2.44167111 0.59847111-3.63747556 1.14574222-0.99669333 2.29262222-1.34485333 3.43836444-1.19580444 1.09568 0.10012445 2.24256 0.69745778 3.33824 1.74421333 0.64853333 0.49834667 1.24586667 1.14574222 1.8944 1.94332445 3.33824 4.03683555 6.72768 10.76337778 10.26503112 16.89258666 0.94663111 1.64408889 1.89326222 3.23925333 2.94001777 4.73429334 2.14243555 3.38830222 4.38613333 6.17927111 6.72768 7.77329777 1.99224889 1.39491555 4.03569778 1.89326222 6.22933333 0.99669333 1.79313778-0.74752 5.18257778 0.09898667 6.82666667 0 0.94663111-0.10012445 2.14243555 0.64739555 3.33937778 1.69415112 2.29262222 1.99338667 4.58410667 5.18257778 5.43061333 6.03022222 11.26172445 12.10936889 24.21873778 24.56689778 38.96888889 37.42378666 15.04711111 13.05372445 31.93969778 26.45902222 50.87573333 40.31146667z" fill="#F3F7FF" p-id="1856"></path><path d="M564.97948445 824.23921778c25.66599111 16.60586667 1.94446222 8.98389333 23.33013333 30.60394667 15.78439111-28.36935111 101.32821333-12.63047111 126.27399111-30.79736889-102.05184-109.18229333-71.22147555-24.82972445-149.60412444 0.19342222z" fill="#E5EAF9" p-id="1857"></path><path d="M567.02520889 819.07029334c25.66599111 16.60586667 1.94332445 8.98503111 23.33013333 30.60394666 15.78439111-28.36935111 101.32821333-12.63047111 126.27399111-30.79736888-102.05070222-109.18343111-71.22033778-24.83086222-149.60412444 0.19342222z" fill="#F3F7FF" p-id="1858"></path><path d="M450.048 743.87797334l-79.52384 26.73322666 58.14727111 86.80903112 86.36416-74.36970667z" fill="#8FA5B0" p-id="1859"></path><path d="M442.54208 734.50268445l-81.98371555 28.94051555 59.94609777 93.97703112 92.27150223-78.46229334z" fill="#64C4F4" p-id="1860"></path><path d="M582.87217778 734.50268445l79.39868444 28.94051555-76.10936889 98.12992-76.10936888-82.61518222z" fill="#64C4F4" p-id="1861"></path><path d="M503.08551111 795.96202667a9.60739555 9.60739555 0 1 0 19.21479111 0 9.60739555 9.60739555 0 1 0-19.21479111 0z m0 69.76398222a9.60739555 9.60739555 0 1 0 19.21479111 0 9.60739555 9.60739555 0 1 0-19.21479111 0z m0 79.72977778a9.60739555 9.60739555 0 1 0 19.21479111 0 9.60739555 9.60739555 0 1 0-19.21479111 0z" fill="#FFFDF8" p-id="1862"></path><path d="M549.67296 204.62705778c9.26606222-34.26304 43.53479111-54.19121778 77.39505778-51.59822222 33.86026667 2.59299555 66.24256 24.32682667 90.31338667 52.43221333 7.46951111 8.72220445 14.33486222 18.16234667 19.39797333 28.60942223 16.71054222 34.48263111 14.35079111 153.18698667-0.02958223 185.94588444L549.67296 204.62705778z" fill="#332115" p-id="1863"></path><path d="M551.45244445 138.42318222c19.40593778 15.39413333 37.38737778 42.89308445 27.75950222 67.65681778-22.94670222 33.45976889-66.26872889 31.69962667-102.28622222 41.59943112-28.14179555 7.73461333-54.03875555 24.11633778-82.1407289 32.04437333-32.99896889 9.31043555-69.27815111 6.12238222-98.87744-13.08216889s-51.40593778-55.39157333-52.84067555-94.47196444c13.69998222 7.48088889 28.00753778 15.12220445 43.16842667 14.91285333 20.65180445-0.28444445 38.72426667-14.86848 56.65223111-26.67406223 18.65728-12.28572445 38.48192-22.02055111 58.25308444-31.72579555 15.22915555-7.4752 30.60394667-15.00273778 46.86734223-18.56739555 35.74556445-7.83473778 73.48224 4.53973333 103.44448 28.3079111z" fill="#332115" p-id="1864"></path><path d="M743.64586667 378.71502222c-0.38912-11.53479111-1.51324445-22.09336889-1.57809778-27.30097777-0.47559111-38.38634667-12.46208-71.95192889-35.34848-102.80049778-39.75168-53.57909333-99.77287111-86.25720889-166.97685334-86.25720889h-53.26961777c-60.01777778 0-117.17973333 27.62638222-157.39790223 71.64814222-24.45994667 26.77304889-41.04874667 60.00981333-48.45454222 95.46524445-3.79790222 18.18282667-5.19281778 36.84465778-4.37475555 55.39498667 0.64512 14.62272-2.29831111 42.58247111 16.16782222 32.06030222 11.45287111-6.52629333 22.85454222-30.19434667 32.61895111-40.25912889 12.45525333-12.83754667 26.17344-24.48952889 41.17959111-34.24938667 29.97816889-19.49923555 64.50517333-30.76778667 100.25301333-32.39253333 57.46801778-2.6112 111.98919111 18.49457778 161.33461334 46.15850667 28.13952 15.77528889 54.10360889 24.41898667 73.88615111 50.7539911 4.94933333 6.58773333 9.94531555 13.91843555 17.69927111 16.70485334 22.62584889 8.12942222 25.08231111-20.57216 24.26083556-44.92629334z" fill="#332115" p-id="1865"></path><path d="M278.58147555 368.21788445c2.15153778-5.73098667 6.44437333-10.40384 11.09219556-14.38833778 15.90613333-13.63399111 37.28156445-20.69390222 58.17912889-19.21592889-20.83271111 21.61664-41.05329778 47.17340445-42.38222222 77.16522667-0.87153778 19.65511111 6.4512 40.35925333-1.26976 58.45560889-14.44067555-25.21543111-23.63619555-53.41866667-26.83448889-82.30001778-0.73272889-6.60821333-1.12184889-13.49290667 1.21514666-19.71655111z m461.16067556 0c-2.15153778-5.73098667-6.44437333-10.40384-11.09219556-14.38833778-15.90613333-13.63399111-37.28156445-20.69390222-58.17912888-19.21592889 20.83271111 21.61664 41.05329778 47.17340445 42.38222222 77.16522667 0.87153778 19.65511111-6.45006222 40.35925333 1.26976 58.45560889 14.44067555-25.21543111 23.63619555-53.41866667 26.83448889-82.30001778 0.73272889-6.60821333 1.12184889-13.49290667-1.21514667-19.71655111z" fill="#332115" p-id="1866"></path><path d="M580.25870222 674.15722667v19.98165333c-39.89959111 21.77592889-90.00732445 18.23857778-140.11392 0.64739556v-21.72700444c5.56714667 0.14904889 1.97632 0.29923555 2.27441778 0.39822222 22.02624 9.61763555 45.22439111 14.99932445 69.74122667 14.99932444 23.91950222 0.00113778 47.68426667-5.13137778 68.09827555-14.29959111z" fill="#F4C7A8" p-id="1867"></path></svg>